<?xml version="1.0" encoding="utf-8"?>
<svg version="1.1" xmlns:xlink="http://www.w3.org/1999/xlink" width="300px" height="170px" xmlns="http://www.w3.org/2000/svg">
  <g transform="matrix(1 0 0 1 -46 -362 )">
    <path d="M 46 362  L 346 362  L 346 532  L 46 532  L 46 362  " fill-rule="nonzero" fill="#cccccc" stroke="none" />
    <path d="M 58 374  L 334 374  L 334 520  L 58 520  L 58 374  " fill-rule="nonzero" fill="#ffffff" stroke="none" />
    <path d="M 214.75 413  C 207.61 413  202 407.39  202 400.25  C 202 393.11  207.61 387.5  214.75 387.5  C 221.89 387.5  227.5 393.11  227.5 400.25  C 227.5 407.39  221.89 413  214.75 413  " fill-rule="nonzero" fill="#cccccc" stroke="none" />
    <path d="M 63 516  L 63 440.65  L 129.75 406.4  L 223.2 469.42  L 276.6 426.95  L 330 469.42  L 330 516  L 63 516  " fill-rule="nonzero" fill="#169bd5" stroke="none" />
  </g>
</svg>