<?xml version="1.0" encoding="utf-8"?>
<svg version="1.1" xmlns:xlink="http://www.w3.org/1999/xlink" width="18px" height="18px" xmlns="http://www.w3.org/2000/svg">
  <g transform="matrix(1 0 0 1 -674 -609 )">
    <path d="M 17.35750139431121 0  C 17.491355270496378 0  17.611823759063025 0.03683035714285876  17.718906860011153 0.11049107142857229  C 17.939765755716678 0.27120535714285743  18.030117122141665 0.48549107142857095  17.989960959286112 0.7533482142857149  L 15.419966536530955 16.181919642857142  C 15.386503067484663 16.37611607142857  15.27941996653653 16.526785714285715  15.09871723368656 16.633928571428573  C 15.005019520356944 16.6875  14.901282766313441 16.714285714285715  14.787506971556052 16.714285714285715  C 14.71388733965421 16.714285714285715  14.633575013943112 16.697544642857142  14.546569994422756 16.6640625  L 9.998884551031791 14.80580357142857  L 7.569436698271055 17.768973214285715  C 7.448968209704406 17.92299107142857  7.284997211377581 18  7.0775237032905745 18  C 6.990518683770218 18  6.916899051868377 17.986607142857142  6.856664807585053 17.959821428571427  C 6.729503625209148 17.912946428571427  6.62744004461796 17.834263392857142  6.550474065811489 17.723772321428573  C 6.47350808700502 17.61328125  6.435025097601785 17.491071428571427  6.435025097601785 17.357142857142858  L 6.435025097601785 13.8515625  L 15.108756274400447 3.214285714285715  L 4.377021751254881 12.505580357142858  L 0.41160066926938094 10.878348214285715  C 0.16397099832682654 10.784598214285712  0.030117122141662022 10.600446428571429  0.01003904071388734 10.325892857142858  C -0.0033463469046291147 10.058035714285714  0.1037367540435025 9.860491071428571  0.33128834355828224 9.73325892857143  L 17.036252091466814 0.09040178571428514  C 17.13664249860569 0.030133928571427715  17.243725599553823 0  17.35750139431121 0  Z " fill-rule="nonzero" fill="#ffffff" stroke="none" transform="matrix(1 0 0 1 674 609 )" />
  </g>
</svg>