<?xml version="1.0" encoding="utf-8"?>
<svg version="1.1" xmlns:xlink="http://www.w3.org/1999/xlink" width="12px" height="16px" xmlns="http://www.w3.org/2000/svg">
  <g transform="matrix(1 0 0 1 -116 -447 )">
    <path d="M 3.3333333333333335 5.090909090909092  L 3.3333333333333335 7.272727272727273  L 8.666666666666666 7.272727272727273  L 8.666666666666666 5.090909090909092  C 8.666666666666666 4.287878787878787  8.40625 3.6022727272727266  7.885416666666667 3.0340909090909083  C 7.364583333333334 2.4659090909090917  6.7361111111111125 2.1818181818181817  6 2.1818181818181817  C 5.263888888888889 2.1818181818181817  4.635416666666666 2.4659090909090917  4.114583333333333 3.0340909090909083  C 3.59375 3.6022727272727266  3.3333333333333335 4.287878787878787  3.3333333333333335 5.090909090909092  Z M 11.708333333333332 7.590909090909092  C 11.902777777777779 7.803030303030303  12 8.060606060606059  12 8.363636363636363  L 12 14.90909090909091  C 12 15.212121212121213  11.902777777777779 15.469696969696969  11.708333333333332 15.681818181818182  C 11.513888888888891 15.893939393939394  11.277777777777779 16  11 16  L 1 16  C 0.7222222222222223 16  0.48611111111111116 15.893939393939394  0.2916666666666667 15.681818181818182  C 0.09722222222222221 15.469696969696969  0 15.212121212121213  0 14.90909090909091  L 0 8.363636363636363  C 0 8.060606060606059  0.09722222222222221 7.803030303030303  0.2916666666666667 7.590909090909092  C 0.48611111111111116 7.378787878787879  0.7222222222222223 7.272727272727273  1 7.272727272727273  L 1.3333333333333333 7.272727272727273  L 1.3333333333333333 5.090909090909092  C 1.3333333333333333 3.6969696969696955  1.7916666666666665 2.5  2.7083333333333335 1.5  C 3.625 0.5  4.722222222222222 0  6 0  C 7.277777777777779 0  8.375 0.5  9.291666666666668 1.5  C 10.208333333333332 2.5  10.666666666666666 3.6969696969696955  10.666666666666666 5.090909090909092  L 10.666666666666666 7.272727272727273  L 11 7.272727272727273  C 11.277777777777779 7.272727272727273  11.513888888888891 7.378787878787879  11.708333333333332 7.590909090909092  Z " fill-rule="nonzero" fill="#ffffff" stroke="none" fill-opacity="0.4980392156862745" transform="matrix(1 0 0 1 116 447 )" />
  </g>
</svg>