<?xml version="1.0" encoding="utf-8"?>
<svg version="1.1" xmlns:xlink="http://www.w3.org/1999/xlink" width="40px" height="40px" xmlns="http://www.w3.org/2000/svg">
  <g transform="matrix(1 0 0 1 -230 -17 )">
    <path d="M 230 17  L 270 17  L 270 57  L 230 57  L 230 17  " fill-rule="nonzero" fill="#cccccc" stroke="none" />
    <path d="M 233 20  L 267 20  L 267 54  L 233 54  L 233 20  " fill-rule="nonzero" fill="#ffffff" stroke="none" />
    <path d="M 253.8 29  C 252.12 29  250.8 27.68  250.8 26  C 250.8 24.32  252.12 23  253.8 23  C 255.48000000000002 23  256.8 24.32  256.8 26  C 256.8 27.68  255.48000000000002 29  253.8 29  " fill-rule="nonzero" fill="#cccccc" stroke="none" />
    <path d="M 234 53  L 234 35.4  L 242 27.4  L 253.2 33.8  L 259.6 32.2  L 266 33.8  L 266 53  L 234 53  " fill-rule="nonzero" fill="#169bd5" stroke="none" />
  </g>
</svg>