<?xml version="1.0" encoding="utf-8"?>
<svg version="1.1" xmlns:xlink="http://www.w3.org/1999/xlink" width="58px" height="59px" xmlns="http://www.w3.org/2000/svg">
  <g transform="matrix(1 0 0 1 -329 -624 )">
    <path d="M 358 624  C 374.24 624  387 636.98  387 653.5  C 387 670.02  374.24 683  358 683  C 341.76 683  329 670.02  329 653.5  C 329 636.98  341.76 624  358 624  Z " fill-rule="nonzero" fill="#ffffff" stroke="none" />
    <path d="M 358 624.5  C 373.96 624.5  386.5 637.26  386.5 653.5  C 386.5 669.74  373.96 682.5  358 682.5  C 342.04 682.5  329.5 669.74  329.5 653.5  C 329.5 637.26  342.04 624.5  358 624.5  Z " stroke-width="1" stroke="#797979" fill="none" />
  </g>
</svg>